<?xml version="1.0" encoding="utf-8"?>
<!-- Generator: Adobe Illustrator 27.2.0, SVG Export Plug-In . SVG Version: 6.00 Build 0)  -->
<svg version="1.1" id="Layer_1" xmlns="http://www.w3.org/2000/svg" xmlns:xlink="http://www.w3.org/1999/xlink" x="0px" y="0px"
	 viewBox="0 0 528.31 123.53" style="enable-background:new 0 0 528.31 123.53;" xml:space="preserve">
<style type="text/css">
	.st0{fill:#FE5000;}
</style>
<g>
	<g>
		<path d="M42.57,9.95c-16.81,0-30.48,15.4-30.48,34.32c0,18.93,13.67,34.33,30.48,34.33h445.35c16.81,0,30.49-15.4,30.49-34.33
			c0-18.93-13.68-34.32-30.49-34.32H42.57z M487.91,80.57H42.57c-17.89,0-32.44-16.28-32.44-36.29c0-19.69,14.1-35.77,31.6-36.27
			V7.99h446.19c17.89,0,32.45,16.28,32.45,36.29C520.36,64.29,505.81,80.57,487.91,80.57"/>
		<path d="M76.62,48.81c-2.11,13.47-13.91,23.88-28.16,23.88c-15.73,0-28.49-12.59-28.49-28.1c0-15.52,12.75-28.11,28.49-28.11
			c14.25,0,26.06,10.33,28.17,23.8h-7.92c-1.99-9.22-10.31-16.12-20.25-16.12c-11.44,0-20.71,9.15-20.71,20.43
			s9.27,20.43,20.71,20.43c10.02,0,18.36-6.89,20.3-16.21H76.62z"/>
		<path class="st0" d="M48.46,54.19c5.38,0,9.74-4.31,9.74-9.61c0-5.3-4.35-9.59-9.74-9.59c-5.36,0-9.73,4.29-9.73,9.59
			C38.73,49.88,43.09,54.19,48.46,54.19"/>
		<path d="M48.46,56.5c-6.67,0-12.07-5.34-12.07-11.92c0-6.58,5.4-11.91,12.07-11.91c6.68,0,12.09,5.33,12.09,11.91
			C60.55,51.16,55.14,56.5,48.46,56.5 M48.46,26.4c-10.19,0-18.44,8.14-18.44,18.19c0,10.05,8.25,18.19,18.44,18.19
			c10.19,0,18.45-8.13,18.45-18.19C66.9,34.54,58.64,26.4,48.46,26.4"/>
		<path d="M488.32,25.05v1.68h1.05c0.93,0,2.2,0.15,2.2-0.77c0-0.85-0.73-0.91-1.54-0.91H488.32z M492.47,30.82h-1.12l-1.75-3.11
			h-1.27v3.11h-0.99v-6.74h2.88c1.24,0,2.35,0.37,2.35,1.78c0,1.33-0.92,1.82-1.83,1.85L492.47,30.82z M484.58,27.4
			c0,2.83,2.32,5.02,5.1,5.02c2.78,0,5.11-2.19,5.11-5.02c0-2.83-2.33-5.02-5.11-5.02C486.9,22.38,484.58,24.57,484.58,27.4
			 M483.59,27.4c0-3.34,2.69-5.99,6.1-5.99c3.41,0,6.09,2.66,6.09,5.99c0,3.34-2.68,6-6.09,6C486.28,33.4,483.59,30.73,483.59,27.4"
			/>
	</g>
	<polygon points="108.29,28.89 121.92,28.89 121.92,51.21 142,51.21 142,58.91 108.29,58.91 	"/>
	<polygon points="143.6,28.89 179.84,28.89 179.84,36.58 157.23,36.58 157.23,40.33 177.11,40.33 177.11,47.47 157.23,47.47 
		157.23,51.21 181.15,51.21 181.15,58.91 143.6,58.91 	"/>
	<polygon points="282.31,28.89 318.55,28.89 318.55,36.58 295.94,36.58 295.94,40.33 315.83,40.33 315.83,47.47 295.94,47.47 
		295.94,51.21 319.85,51.21 319.85,58.91 282.31,58.91 	"/>
	<polygon points="401.95,28.89 438.2,28.89 438.2,36.58 415.57,36.58 415.57,40.33 435.45,40.33 435.45,47.47 415.57,47.47 
		415.57,51.21 439.49,51.21 439.49,58.91 401.95,58.91 	"/>
	<g>
		<path d="M224.63,40.07c-0.24-1.09-1.48-4.42-7.12-4.42c-6.38,0-8.43,4.2-8.43,8.25c0,4.03,2.05,8.23,8.43,8.23
			c4.58,0,6.38-2.18,7.18-5.01h13.39c0,6.06-7.25,12.49-20.2,12.49c-14.31,0-22.43-6.85-22.43-15.72c0-9.46,8.79-15.73,22.43-15.73
			c12.14,0.05,18.83,4.37,20.01,11.9H224.63z"/>
		<path d="M360.16,47.31c0,8.32-6.43,12.31-19.53,12.31c-13.1,0-19.59-3.99-19.59-12.31V28.89h13.22v16.36c0,3.06,0,6.89,6.43,6.89
			c6.24,0,6.24-3.83,6.24-6.89V28.89h13.22V47.31z"/>
		<path d="M374.99,48.81c0,0.76,0.19,1.43,0.5,1.98c0.99,1.81,3.97,2.19,6.5,2.19c2.23,0,5.64-0.5,5.64-2.73
			c0-1.56-1.92-1.98-9.54-3.45c-6.99-1.34-14.99-2.64-14.99-8.7c0-6.93,8.74-9.92,17.84-9.92c9.61,0,18.1,2.48,18.47,9.79h-12.89
			c0.24-1.13-0.5-1.88-1.61-2.4c-1.11-0.55-2.67-0.75-4.03-0.75c-1.86,0-4.9,0.33-4.9,2.02c0.25,2.14,6.58,2.61,12.83,3.78
			c6.26,1.18,12.46,3.14,12.46,8.66c0,7.82-10.6,10.34-20.45,10.34c-5.01,0-19.33-1.21-19.45-10.81H374.99z"/>
	</g>
	<polygon points="451.1,36.58 439.83,36.58 439.83,28.89 475.54,28.89 475.54,36.58 464.73,36.58 464.73,58.91 451.1,58.91 	"/>
	<g>
		<path d="M260.82,42h-7.14v-5.96h6.39c5.2,0,6.76,1.08,6.76,2.98C266.83,41.72,263.35,42,260.82,42 M271.58,45.34l0.2-0.01
			c0.85-0.08,2.05-0.33,2.05-0.33c4.52-1.15,6.63-4.41,6.63-7.54c0-5.67-6.69-8.57-14.44-8.57h-25.96v30.02h13.63V48.44h5.63h0.02
			l6.65,10.73h14.06l-0.5-0.87L271.58,45.34z"/>
	</g>
	<polygon points="174.38,99.06 174.38,117.09 176.99,117.09 176.99,109.01 185.33,109.01 185.33,106.86 176.99,106.86 
		176.99,101.21 185.85,101.21 185.85,99.06 	"/>
	<g>
		<path d="M198.15,107.53c1.33,0,2.32-0.26,2.96-0.78c0.64-0.52,0.96-1.33,0.96-2.42c0-1.09-0.32-1.89-0.95-2.39
			c-0.63-0.5-1.62-0.76-2.97-0.76h-4.78v6.34H198.15z M205.42,117.09h-2.92l-3.07-5.78c-0.34-0.61-0.75-1.04-1.22-1.29
			c-0.47-0.25-1.09-0.37-1.85-0.37h-2.97v7.44h-2.61V99.06h7.68c2,0,3.52,0.44,4.57,1.33c1.05,0.89,1.57,2.18,1.57,3.89
			c0,1.38-0.39,2.52-1.16,3.4c-0.78,0.89-1.88,1.45-3.31,1.69c0.89,0.27,1.62,0.94,2.2,2L205.42,117.09z"/>
	</g>
	<path d="M217.62,102l3.66,8.54h-7.34L217.62,102z M216.49,99.06l-8.03,18.04h2.66l1.92-4.45h9.13l1.92,4.45h2.64l-8.03-18.04
		H216.49z"/>
	<polygon points="243.46,99.06 243.46,112.69 233.12,99.06 231.13,99.06 231.13,117.09 233.61,117.09 233.61,103.48 243.92,117.09 
		245.94,117.09 245.94,99.06 	"/>
	<g>
		<path d="M254.98,116.17c-1.29-0.75-2.28-1.82-2.97-3.21c-0.69-1.39-1.04-3.02-1.04-4.9c0-1.88,0.35-3.51,1.04-4.9
			c0.69-1.39,1.68-2.46,2.97-3.2c1.29-0.74,2.8-1.11,4.54-1.11c1.23,0,2.37,0.19,3.43,0.58c1.06,0.38,1.95,0.93,2.69,1.65
			l-0.92,1.94c-0.84-0.7-1.67-1.2-2.49-1.51c-0.83-0.31-1.72-0.46-2.67-0.46c-1.88,0-3.32,0.61-4.34,1.82
			c-1.02,1.21-1.52,2.94-1.52,5.19c0,2.25,0.51,3.99,1.52,5.21c1.01,1.22,2.46,1.83,4.34,1.83c0.96,0,1.85-0.15,2.67-0.46
			c0.83-0.31,1.66-0.81,2.49-1.51l0.92,1.94c-0.73,0.72-1.63,1.27-2.69,1.65c-1.06,0.38-2.2,0.58-3.43,0.58
			C257.78,117.3,256.26,116.92,254.98,116.17"/>
	</g>
	<polygon points="270.36,99.06 270.36,117.09 282.08,117.09 282.08,114.97 272.94,114.97 272.94,109.01 281.57,109.01 
		281.57,106.86 272.94,106.86 272.94,101.18 282.08,101.18 282.08,99.06 	"/>
	<polygon points="300.2,99.06 295.18,102.15 296.31,104.12 299.45,102.2 299.45,114.92 295.51,114.92 295.51,117.09 306.06,117.09 
		306.06,114.92 302.09,114.92 302.09,99.06 	"/>
	<g>
		<path d="M319.03,107.33c0.67-0.67,1.01-1.56,1.01-2.65c0-1.11-0.33-2-1-2.67c-0.67-0.67-1.54-1.01-2.63-1.01
			c-1.06,0-1.91,0.34-2.55,1.01c-0.64,0.67-0.96,1.56-0.96,2.67c0,1.09,0.32,1.97,0.96,2.65c0.64,0.67,1.49,1.01,2.55,1.01
			C317.48,108.34,318.36,108.01,319.03,107.33 M321.44,101.14c1.2,1.53,1.8,3.71,1.8,6.54c0,2.01-0.29,3.74-0.86,5.18
			c-0.57,1.44-1.39,2.54-2.46,3.3c-1.07,0.76-2.35,1.14-3.85,1.14c-1.06,0-2.09-0.19-3.08-0.56c-1-0.37-1.87-0.91-2.62-1.61
			l0.92-1.95c1.64,1.31,3.2,1.97,4.71,1.97c1.47,0,2.6-0.64,3.4-1.93c0.8-1.29,1.2-3.12,1.2-5.49v-0.05
			c-0.37,0.87-0.98,1.56-1.83,2.06c-0.84,0.5-1.79,0.76-2.85,0.76c-1.08,0-2.04-0.24-2.89-0.73c-0.86-0.49-1.51-1.16-1.98-2.03
			c-0.47-0.87-0.7-1.87-0.7-2.99c0-1.13,0.26-2.14,0.77-3.03c0.51-0.9,1.22-1.59,2.11-2.1c0.9-0.5,1.91-0.75,3.06-0.75
			C318.52,98.85,320.24,99.62,321.44,101.14"/>
		<path d="M339.24,114.92v2.17h-11.82v-1.97l6.22-6.81c0.8-0.87,1.38-1.66,1.74-2.38c0.36-0.72,0.54-1.42,0.54-2.12
			c0-0.92-0.26-1.62-0.79-2.1c-0.53-0.48-1.29-0.72-2.28-0.72c-1.69,0-3.36,0.66-5.02,1.97l-0.92-1.94
			c0.72-0.66,1.62-1.19,2.71-1.59c1.09-0.39,2.19-0.59,3.3-0.59c1.72,0,3.09,0.43,4.09,1.29c1.01,0.86,1.51,2.03,1.51,3.49
			c0,1.04-0.23,2.03-0.68,2.97c-0.45,0.94-1.21,1.99-2.26,3.15l-4.84,5.17H339.24z"/>
		<path d="M353.69,106.4c0.85,0.48,1.51,1.15,1.98,2.02c0.47,0.87,0.7,1.87,0.7,2.99c0,1.16-0.26,2.18-0.78,3.07
			c-0.52,0.89-1.26,1.57-2.23,2.06c-0.96,0.48-2.09,0.73-3.36,0.73c-1.11,0-2.21-0.2-3.29-0.59c-1.08-0.39-1.98-0.92-2.7-1.59
			l0.92-1.94c1.62,1.31,3.32,1.97,5.09,1.97c1.19,0,2.12-0.32,2.79-0.96c0.67-0.64,1-1.54,1-2.7c0-1.11-0.33-2-1-2.66
			c-0.67-0.66-1.55-1-2.66-1c-1.59,0-2.89,0.61-3.91,1.84h-1.69V99.06h11.05v2.12h-8.44v5.68c0.94-0.78,2.12-1.18,3.55-1.18
			C351.85,105.68,352.84,105.92,353.69,106.4"/>
	</g>
</g>
</svg>
